<?xml version="1.0" standalone="no"?>
<!DOCTYPE svg PUBLIC "-//W3C//DTD SVG 20010904//EN"
 "http://www.w3.org/TR/2001/REC-SVG-20010904/DTD/svg10.dtd">
<svg version="1.0" xmlns="http://www.w3.org/2000/svg"
 width="700.000000pt" height="700.000000pt" viewBox="0 0 700.000000 700.000000"
 preserveAspectRatio="xMidYMid meet">
<metadata>
Created by potrace 1.14, written by Peter Selinger 2001-2017
</metadata>
<g transform="translate(0.000000,700.000000) scale(0.100000,-0.100000)"
fill="#000000" stroke="none">
<path d="M1465 5465 c-5 -2 -35 -11 -66 -19 -92 -26 -179 -93 -236 -182 -70
-110 -68 -83 -68 -849 l0 -690 -50 -5 c-27 -3 -77 -4 -110 -2 l-60 3 -1 302
c-1 290 -2 304 -24 362 -59 152 -229 237 -390 195 -100 -26 -199 -124 -229
-228 -9 -33 -12 -233 -11 -840 1 -438 1 -804 2 -812 0 -37 34 -119 65 -161 37
-49 107 -99 166 -118 44 -15 138 -16 185 -2 94 28 177 106 213 200 21 53 22
74 23 356 l1 300 100 5 c55 3 105 4 110 2 7 -1 10 -236 9 -680 0 -476 3 -692
11 -727 48 -210 231 -350 443 -340 198 9 350 131 403 323 17 59 18 121 19 740
0 372 2 677 4 680 5 5 3047 5 3052 -1 2 -2 4 -311 5 -688 0 -631 2 -688 18
-741 51 -159 166 -266 326 -303 234 -55 465 92 520 330 8 35 11 248 11 727
l-1 677 65 3 c36 2 85 1 110 -2 l45 -5 1 -295 c0 -181 5 -310 12 -333 63 -218
322 -309 506 -177 65 47 118 128 130 200 7 41 8 1584 1 1647 -8 76 -61 163
-131 213 -59 42 -118 61 -189 61 -129 0 -240 -71 -297 -189 l-32 -67 -1 -302
c0 -166 -3 -305 -7 -308 -5 -6 -63 -8 -168 -6 l-45 1 1 672 c0 370 -4 696 -9
723 -29 162 -169 305 -336 344 -104 23 -239 -2 -330 -62 -47 -31 -131 -115
-131 -130 0 -5 -8 -21 -19 -35 -10 -15 -26 -57 -35 -93 -14 -57 -16 -150 -16
-742 l0 -677 -72 0 c-85 -1 -2957 -1 -2975 0 -10 0 -13 142 -13 676 0 456 -4
690 -11 722 -47 202 -209 339 -409 347 -41 2 -79 1 -85 0z"/>
</g>
</svg>
